<svg width="33" height="32" viewBox="0 0 33 32" fill="none" xmlns="http://www.w3.org/2000/svg">
<path d="M32.1884 0H0.737793V32H32.1884V0Z" fill="#F16D7F"/>
<g clip-path="url(#clip0_146467_703)">
<path d="M16.137 12.6816C14.0219 12.6816 12.3158 14.3849 12.3158 16.4966C12.3158 18.6083 14.0219 20.3117 16.137 20.3117C18.2522 20.3117 19.9582 18.6083 19.9582 16.4966C19.9582 14.3849 18.2522 12.6816 16.137 12.6816ZM16.137 18.9769C14.7702 18.9769 13.6527 17.8646 13.6527 16.4966C13.6527 15.1287 14.7668 14.0164 16.137 14.0164C17.5072 14.0164 18.6213 15.1287 18.6213 16.4966C18.6213 17.8646 17.5039 18.9769 16.137 18.9769ZM21.0058 12.5255C21.0058 13.0203 20.6067 13.4154 20.1145 13.4154C19.619 13.4154 19.2233 13.0169 19.2233 12.5255C19.2233 12.0341 19.6223 11.6357 20.1145 11.6357C20.6067 11.6357 21.0058 12.0341 21.0058 12.5255ZM23.5367 13.4287C23.4801 12.2367 23.2074 11.1808 22.3328 10.3109C21.4614 9.44097 20.4039 9.1687 19.21 9.10894C17.9794 9.03921 14.2913 9.03921 13.0607 9.10894C11.8701 9.16538 10.8126 9.43765 9.93792 10.3076C9.06326 11.1775 8.79388 12.2333 8.73402 13.4253C8.66418 14.6539 8.66418 18.3361 8.73402 19.5646C8.79056 20.7566 9.06326 21.8124 9.93792 22.6824C10.8126 23.5523 11.8668 23.8246 13.0607 23.8843C14.2913 23.9541 17.9794 23.9541 19.21 23.8843C20.4039 23.8279 21.4614 23.5556 22.3328 22.6824C23.2041 21.8124 23.4768 20.7566 23.5367 19.5646C23.6065 18.3361 23.6065 14.6572 23.5367 13.4287ZM21.947 20.8828C21.6876 21.5335 21.1854 22.0349 20.5303 22.2972C19.5492 22.6857 17.2212 22.596 16.137 22.596C15.0528 22.596 12.7215 22.6824 11.7438 22.2972C11.0919 22.0382 10.5898 21.5369 10.327 20.8828C9.93792 19.9033 10.0277 17.5791 10.0277 16.4966C10.0277 15.4142 9.94125 13.0867 10.327 12.1105C10.5864 11.4597 11.0886 10.9583 11.7438 10.696C12.7249 10.3076 15.0528 10.3972 16.137 10.3972C17.2212 10.3972 19.5525 10.3109 20.5303 10.696C21.1821 10.955 21.6843 11.4564 21.947 12.1105C22.3361 13.09 22.2463 15.4142 22.2463 16.4966C22.2463 17.5791 22.3361 19.9066 21.947 20.8828Z" fill="white"/>
</g>
<defs>
<clipPath id="clip0_146467_703">
<rect width="14.8991" height="17" fill="white" transform="translate(8.68408 8)"/>
</clipPath>
</defs>
</svg>
