<svg width="33" height="32" viewBox="0 0 33 32" fill="none" xmlns="http://www.w3.org/2000/svg">
<path d="M32.1879 0H0.737305V32H32.1879V0Z" fill="white"/>
<g clip-path="url(#clip0_146467_415)">
<path d="M16.136 12.6816C14.0209 12.6816 12.3148 14.3849 12.3148 16.4966C12.3148 18.6083 14.0209 20.3117 16.136 20.3117C18.2512 20.3117 19.9573 18.6083 19.9573 16.4966C19.9573 14.3849 18.2512 12.6816 16.136 12.6816ZM16.136 18.9769C14.7692 18.9769 13.6517 17.8646 13.6517 16.4966C13.6517 15.1287 14.7659 14.0164 16.136 14.0164C17.5062 14.0164 18.6203 15.1287 18.6203 16.4966C18.6203 17.8646 17.5029 18.9769 16.136 18.9769ZM21.0049 12.5255C21.0049 13.0203 20.6058 13.4154 20.1136 13.4154C19.618 13.4154 19.2223 13.0169 19.2223 12.5255C19.2223 12.0341 19.6214 11.6357 20.1136 11.6357C20.6058 11.6357 21.0049 12.0341 21.0049 12.5255ZM23.5357 13.4287C23.4792 12.2367 23.2065 11.1808 22.3318 10.3109C21.4605 9.44097 20.4029 9.1687 19.209 9.10894C17.9785 9.03921 14.2903 9.03921 13.0598 9.10894C11.8692 9.16538 10.8116 9.43765 9.93694 10.3076C9.06229 11.1775 8.79291 12.2333 8.73304 13.4253C8.6632 14.6539 8.6632 18.3361 8.73304 19.5646C8.78958 20.7566 9.06229 21.8124 9.93694 22.6824C10.8116 23.5523 11.8658 23.8246 13.0598 23.8843C14.2903 23.9541 17.9785 23.9541 19.209 23.8843C20.4029 23.8279 21.4605 23.5556 22.3318 22.6824C23.2031 21.8124 23.4758 20.7566 23.5357 19.5646C23.6055 18.3361 23.6055 14.6572 23.5357 13.4287ZM21.946 20.8828C21.6866 21.5335 21.1844 22.0349 20.5293 22.2972C19.5482 22.6857 17.2202 22.596 16.136 22.596C15.0519 22.596 12.7205 22.6824 11.7428 22.2972C11.091 22.0382 10.5888 21.5369 10.3261 20.8828C9.93694 19.9033 10.0267 17.5791 10.0267 16.4966C10.0267 15.4142 9.94027 13.0867 10.3261 12.1105C10.5855 11.4597 11.0876 10.9583 11.7428 10.696C12.7239 10.3076 15.0519 10.3972 16.136 10.3972C17.2202 10.3972 19.5515 10.3109 20.5293 10.696C21.1811 10.955 21.6833 11.4564 21.946 12.1105C22.3351 13.09 22.2453 15.4142 22.2453 16.4966C22.2453 17.5791 22.3351 19.9066 21.946 20.8828Z" fill="black"/>
</g>
<defs>
<clipPath id="clip0_146467_415">
<rect width="14.8991" height="17" fill="white" transform="translate(8.68359 8)"/>
</clipPath>
</defs>
</svg>
