<svg width="48" height="35" viewBox="0 0 48 35" fill="none" xmlns="http://www.w3.org/2000/svg">
<path d="M42.3929 8.53564C41.1765 8.52335 40.0048 8.99349 39.1341 9.84302C38.2634 10.6925 37.7645 11.8522 37.7469 13.0686C37.75 13.7086 37.891 14.3405 38.1602 14.9211C38.4294 15.5018 38.8205 16.0176 39.3069 16.4336L33.4469 18.4888L25.108 8.80566C26.0032 8.50693 26.783 7.93646 27.3387 7.17358C27.8943 6.41071 28.1982 5.49331 28.2079 4.54956C28.1827 3.33432 27.6823 2.17743 26.8139 1.3269C25.9455 0.476377 24.7784 0 23.5629 0C22.3474 0 21.1803 0.476377 20.3119 1.3269C19.4436 2.17743 18.9431 3.33432 18.9179 4.54956C18.9276 5.48395 19.2252 6.39274 19.7701 7.15186C20.315 7.91097 21.0807 8.48368 21.9629 8.79175L13.6109 18.4917L7.75298 16.4368C8.23905 16.0206 8.62977 15.5045 8.89861 14.9238C9.16745 14.3432 9.3081 13.7116 9.31096 13.0718C9.33399 12.195 9.1084 11.3296 8.66033 10.5757C8.21226 9.82172 7.55997 9.2099 6.77886 8.81104C5.99775 8.41217 5.11974 8.2424 4.24627 8.32153C3.37279 8.40067 2.53953 8.72555 1.84282 9.2583C1.14611 9.79105 0.614403 10.5101 0.309132 11.3323C0.00386038 12.1545 -0.0625004 13.0462 0.117726 13.9045C0.297951 14.7629 0.717372 15.5526 1.32756 16.1826C1.93776 16.8126 2.71382 17.2571 3.56597 17.4646V29.7556C3.57333 29.8376 3.59003 29.9184 3.61589 29.9966C3.58296 30.1233 3.56623 30.2538 3.56597 30.3848C3.56597 34.7968 21.4849 34.9268 23.5279 34.9268C25.5709 34.9268 43.4899 34.7978 43.4899 30.3848C43.4892 30.2539 43.4723 30.1234 43.4399 29.9966C43.4675 29.9189 43.4844 29.8379 43.4899 29.7556V17.4646C44.5888 17.2244 45.5586 16.5828 46.2093 15.6653C46.86 14.7478 47.1448 13.6204 47.0081 12.5039C46.8714 11.3874 46.3229 10.3621 45.47 9.62866C44.6172 8.89526 43.5213 8.50653 42.3969 8.53857L42.3929 8.53564ZM21.1739 4.55176C21.1623 4.07755 21.2925 3.61062 21.5475 3.21069C21.8026 2.81076 22.171 2.49591 22.6059 2.3064C23.0407 2.11688 23.5222 2.06132 23.9888 2.14673C24.4554 2.23214 24.886 2.45463 25.2255 2.78589C25.565 3.11715 25.7981 3.542 25.8949 4.00635C25.9918 4.4707 25.9481 4.95345 25.7693 5.39282C25.5906 5.8322 25.2849 6.20831 24.8914 6.47314C24.4979 6.73798 24.0343 6.8795 23.56 6.87964C22.9352 6.88605 22.3333 6.64481 21.8862 6.2085C21.439 5.77218 21.1828 5.17647 21.1739 4.55176V4.55176ZM13.5839 20.8276C13.8009 20.9026 14.0352 20.9113 14.2571 20.8525C14.479 20.7938 14.6784 20.6701 14.8299 20.4976L23.53 10.3977L32.2299 20.4976C32.3811 20.6701 32.5803 20.7938 32.8021 20.8528C33.0238 20.9117 33.258 20.9033 33.4749 20.8286L41.233 18.1038V28.0408C36.348 25.9188 25.1239 25.8406 23.5329 25.8406C21.9419 25.8406 10.7139 25.9198 5.83294 28.0408V18.1038L13.5839 20.8276ZM23.5269 32.7166C14.8269 32.7166 9.2779 31.7057 6.9699 30.8547C6.61882 30.7373 6.2831 30.578 5.9699 30.3806C6.6919 29.8596 9.03096 29.1487 12.936 28.6487C19.9714 27.844 27.0755 27.844 34.1109 28.6487C38.0109 29.1487 40.356 29.8596 41.076 30.3806C40.7653 30.5794 40.4311 30.7388 40.081 30.8547C37.779 31.7037 32.2349 32.7166 23.5269 32.7166ZM2.27996 13.0686C2.26883 12.5945 2.39927 12.1279 2.65459 11.7283C2.90991 11.3286 3.27854 11.0139 3.71343 10.8247C4.14832 10.6355 4.62965 10.5801 5.09612 10.6658C5.56259 10.7514 5.99301 10.9743 6.33232 11.3057C6.67164 11.637 6.90445 12.0618 7.00115 12.5261C7.09784 12.9904 7.054 13.4731 6.87517 13.9124C6.69634 14.3516 6.39062 14.7277 5.99712 14.9924C5.60362 15.2572 5.14021 15.3986 4.66594 15.3987C4.04078 15.4054 3.43844 15.1639 2.99114 14.7271C2.54384 14.2903 2.28813 13.6937 2.27996 13.0686V13.0686ZM42.3929 15.3987C41.9349 15.3875 41.4904 15.2414 41.115 14.9788C40.7396 14.7162 40.45 14.3487 40.2824 13.9224C40.1148 13.496 40.0767 13.0297 40.1728 12.5818C40.2689 12.1339 40.495 11.7241 40.8228 11.4041C41.1506 11.084 41.5655 10.8677 42.0156 10.7822C42.4656 10.6968 42.9309 10.7459 43.3532 10.9236C43.7755 11.1013 44.136 11.3997 44.3896 11.7812C44.6432 12.1628 44.7786 12.6105 44.779 13.0686C44.7703 13.6935 44.5143 14.2895 44.0671 14.7261C43.6199 15.1626 43.0178 15.4041 42.3929 15.3977V15.3987Z" fill="#F16D7F"/>
</svg>
