<svg width="32" height="32" viewBox="0 0 32 32" fill="none" xmlns="http://www.w3.org/2000/svg">
<path d="M31.6635 0H0.212891V32H31.6635V0Z" fill="white"/>
<g clip-path="url(#clip0_146467_419)">
<path d="M22.4179 12.741C22.428 12.8831 22.428 13.0253 22.428 13.1674C22.428 17.5024 19.1507 22.4973 13.1608 22.4973C11.3155 22.4973 9.6012 21.9593 8.15918 21.0253C8.42137 21.0557 8.67345 21.0659 8.94573 21.0659C10.4684 21.0659 11.8701 20.5481 12.9894 19.6649C11.5575 19.6344 10.3575 18.6903 9.94403 17.3908C10.1457 17.4212 10.3474 17.4415 10.5592 17.4415C10.8516 17.4415 11.1441 17.4009 11.4163 17.3298C9.92388 17.0253 8.80453 15.7055 8.80453 14.1116V14.071C9.23812 14.3146 9.74236 14.4669 10.2768 14.4872C9.39947 13.8983 8.8247 12.8933 8.8247 11.7562C8.8247 11.1471 8.98602 10.5887 9.26839 10.1014C10.8717 12.0913 13.2818 13.3907 15.9843 13.5329C15.9339 13.2892 15.9036 13.0354 15.9036 12.7816C15.9036 10.9745 17.3557 9.50244 19.1608 9.50244C20.0986 9.50244 20.9456 9.89838 21.5406 10.538C22.2767 10.3958 22.9826 10.1217 23.6078 9.7461C23.3658 10.5075 22.8515 11.1471 22.1759 11.5532C22.8313 11.4822 23.4666 11.2994 24.0515 11.0456C23.6079 11.6953 23.0532 12.274 22.4179 12.741Z" fill="black"/>
</g>
<defs>
<clipPath id="clip0_146467_419">
<rect width="15.8924" height="16" fill="white" transform="translate(8.15918 8)"/>
</clipPath>
</defs>
</svg>
